<?xml version="1.0" standalone="no"?>
<!DOCTYPE svg PUBLIC "-//W3C//DTD SVG 20010904//EN"
 "http://www.w3.org/TR/2001/REC-SVG-20010904/DTD/svg10.dtd">
<svg version="1.0" xmlns="http://www.w3.org/2000/svg"
 width="2083.000000pt" height="2083.000000pt" viewBox="0 0 2083.000000 2083.000000"
 preserveAspectRatio="xMidYMid meet">
<metadata>
Created by potrace 1.11, written by Peter Selinger 2001-2013
</metadata>
<g transform="translate(0.000000,2083.000000) scale(0.100000,-0.100000)"
fill="#000000" stroke="none">
<path d="M0 10415 l0 -10415 10415 0 10415 0 0 10415 0 10415 -10415 0 -10415
0 0 -10415z m13945 7592 c491 -68 880 -190 1345 -423 1126 -565 1795 -1513
2010 -2847 42 -260 52 -383 57 -687 4 -234 1 -344 -11 -470 -49 -520 -173
-956 -402 -1420 -486 -986 -1214 -1645 -2170 -1965 -689 -231 -1338 -234
-1949 -9 -445 164 -920 490 -1273 874 -269 293 -620 776 -1073 1477 -68 106
-126 193 -129 193 -3 0 -45 -65 -94 -143 -362 -575 -562 -842 -841 -1123 -547
-548 -1145 -828 -1960 -916 -158 -17 -703 -17 -850 0 -464 54 -866 173 -1215
359 -690 367 -1220 904 -1520 1537 -241 508 -355 1117 -337 1801 16 597 134
1075 390 1575 446 870 1126 1424 2022 1646 850 211 1640 92 2294 -343 448
-298 783 -690 1282 -1500 l137 -223 146 280 c290 556 506 891 791 1225 121
141 327 345 440 435 496 392 1074 591 1960 675 199 18 792 13 950 -8z m3375
-10882 l0 -1065 -6925 0 -6925 0 0 1065 0 1065 6925 0 6925 0 0 -1065z m0
-3270 l0 -1065 -6927 2 -6928 3 -3 1063 -2 1062 6930 0 6930 0 0 -1065z"/>
<path d="M13595 17264 c-419 -56 -871 -250 -1198 -514 -165 -133 -354 -342
-485 -538 -143 -212 -242 -409 -527 -1052 -234 -528 -725 -1690 -725 -1717 0
-62 323 -632 550 -973 396 -592 752 -945 1215 -1203 451 -251 1004 -369 1578
-337 776 44 1381 303 1882 805 406 407 679 907 789 1445 63 311 80 526 73 946
-5 343 -21 500 -81 763 -171 752 -588 1384 -1211 1830 -422 303 -829 480
-1247 541 -158 24 -456 26 -613 4z"/>
<path d="M6375 16654 c-734 -75 -1307 -378 -1740 -919 -310 -388 -471 -814
-515 -1367 -16 -195 -8 -665 14 -818 100 -697 366 -1224 833 -1651 487 -446
1039 -655 1607 -609 646 51 1220 354 1620 855 325 408 662 1120 1111 2353 52
142 49 155 -60 362 -240 456 -467 780 -735 1051 -226 228 -419 369 -685 499
-234 115 -455 183 -737 226 -99 15 -613 28 -713 18z"/>
</g>
</svg>
