<svg xmlns="http://www.w3.org/2000/svg" width="34" height="34">
  <path fill="#FFF" d="M28.772 5.229c-6.49-6.49-17.052-6.49-23.542 0a16.576 16.576 0 0 0-4.505 8.273 16.683 16.683 0 0 0 .618 9.147.677.677 0 0 0 1.274-.459 15.324 15.324 0 0 1-.567-8.405 15.23 15.23 0 0 1 4.138-7.599c5.962-5.962 15.665-5.962 21.625 0a15.194 15.194 0 0 1 4.476 10.628 15.201 15.201 0 0 1-4.204 10.713l-.098.103c-.057.062-.113.124-.174.183-5.961 5.962-15.664 5.962-21.625 0a2.819 2.819 0 0 1-.093-.097 11.007 11.007 0 0 1 .005-.592c.001-.046.005-.091.007-.136.005-.09.009-.18.016-.27l.014-.159c.007-.081.014-.162.023-.242.006-.057.015-.113.021-.169l.03-.229.029-.173c.012-.073.023-.147.037-.222a4.87 4.87 0 0 1 .036-.174c.015-.071.028-.144.045-.215a3.19 3.19 0 0 1 .041-.175l.052-.211.047-.174.06-.207a16.776 16.776 0 0 1 .121-.375l.06-.169.073-.2c.021-.057.043-.112.066-.167.027-.066.053-.132.081-.196.023-.056.047-.111.072-.166l.087-.192a16.588 16.588 0 0 1 .172-.351l.083-.158a17.228 17.228 0 0 1 .19-.341c.036-.062.071-.123.108-.182.031-.053.062-.103.094-.153l.115-.178c.033-.05.065-.099.099-.147.04-.06.081-.118.122-.175l.103-.145c.042-.058.085-.114.129-.172l.108-.138c.044-.057.09-.111.135-.167.037-.045.074-.09.113-.135.046-.056.094-.109.142-.164l.116-.13c.049-.054.099-.105.149-.158l.12-.125c.052-.053.104-.104.157-.155.041-.04.082-.081.124-.12a4.65 4.65 0 0 1 .165-.15c.042-.038.083-.077.126-.114.057-.05.115-.099.173-.147l.127-.107c.06-.05.122-.097.183-.144.043-.034.084-.068.128-.101.064-.049.129-.097.195-.145l.124-.09c.072-.05.146-.101.221-.148.037-.025.072-.051.109-.074.097-.063.195-.123.293-.184l.046-.028c.114-.068.23-.135.347-.199l.122-.064c.078-.041.155-.083.234-.123.051-.025.103-.05.154-.073.065-.032.129-.064.194-.094a6.618 6.618 0 0 0 4.566 1.837c1.701 0 3.34-.663 4.566-1.837a11.032 11.032 0 0 1 5.425 5.521.677.677 0 1 0 1.241-.546 12.212 12.212 0 0 0-5.761-6.04 6.6 6.6 0 0 0 1.148-3.715c0-3.65-2.97-6.619-6.619-6.619a.677.677 0 0 0 0 1.356 5.27 5.27 0 0 1 5.264 5.264 5.247 5.247 0 0 1-1.358 3.518c-1 1.108-2.423 1.744-3.905 1.744s-2.906-.636-3.905-1.744a5.253 5.253 0 0 1 .204-7.26.677.677 0 1 0-.953-.963 6.57 6.57 0 0 0-1.963 4.704c0 1.33.402 2.62 1.146 3.712l-.02.01-.158.082c-.08.041-.16.082-.239.126-.057.03-.111.063-.167.094-.074.042-.148.083-.221.127a4.203 4.203 0 0 0-.168.103c-.069.043-.14.086-.209.131l-.167.11a6.408 6.408 0 0 0-.2.136c-.056.038-.11.077-.165.117l-.192.14-.161.124c-.068.046-.129.095-.19.144l-.157.129c-.06.051-.12.1-.179.153a10.348 10.348 0 0 0-.472.431l-.167.166c-.047.047-.094.093-.141.142-.054.056-.108.115-.161.172l-.134.146c-.054.06-.106.12-.158.182l-.126.146c-.053.063-.104.129-.156.193l-.116.145c-.055.07-.107.142-.159.212l-.101.134a12.85 12.85 0 0 0-.195.281l-.052.074c-.08.119-.157.239-.232.361l-.076.128c-.049.081-.098.161-.145.244l-.085.155c-.042.075-.083.148-.123.225l-.085.168-.109.22-.083.177-.099.218-.077.183a8.447 8.447 0 0 0-.09.22c-.025.062-.048.124-.072.187l-.082.221-.066.191-.073.225-.059.193c-.023.076-.044.151-.066.229l-.052.194c-.02.077-.04.154-.057.232a6.027 6.027 0 0 0-.095.431l-.038.195-.041.244-.031.193-.034.254-.023.188c-.01.089-.018.178-.025.267-.005.06-.012.119-.016.179-.007.101-.012.201-.017.3l-.008.15a11.767 11.767 0 0 0 .004.941c.002.04.007.078.015.115l.002.009c.008.037.02.073.034.107l.003.01a.804.804 0 0 0 .126.194l.005.006.089.096c.067.072.135.144.206.215A16.604 16.604 0 0 0 17 33.64c4.263 0 8.526-1.624 11.772-4.868.07-.071.138-.144.205-.215l.09-.096a16.558 16.558 0 0 0 4.576-11.662 16.542 16.542 0 0 0-4.871-11.57z"/>
</svg>
