<svg xmlns="http://www.w3.org/2000/svg" width="35.538" height="38.968">
  <g fill-rule="evenodd" clip-rule="evenodd" fill="#FFF">
    <path d="M17.607 13.537c-.379.587-.729 1.167-1.118 1.722-.751 1.07-1.628 2.021-2.748 2.722-1.17.732-2.461 1.084-3.827 1.173-1.837.121-3.608-.141-5.226-1.066C2.074 16.59.546 14.355.242 11.335.063 9.567.192 7.82.926 6.18c1.14-2.548 3.038-4.264 5.81-4.817 2.143-.429 4.184-.069 5.949 1.312 1 .782 1.723 1.816 2.41 2.871.252.387.488.785.746 1.203.229-.443.439-.867.665-1.284.582-1.077 1.253-2.092 2.096-2.987C19.747 1.261 21.168.57 22.791.273c1.986-.362 3.981-.428 5.912.232 3.547 1.213 5.813 3.645 6.567 7.346.495 2.429.338 4.844-.765 7.1-1.277 2.613-3.277 4.477-6.123 5.253-2.658.726-5.037.056-7.08-1.765-1.059-.944-1.842-2.127-2.636-3.292-.357-.528-.699-1.064-1.059-1.61zm16.381-3.287c0-.215.004-.43-.002-.645-.004-.138-.024-.274-.037-.411-.277-2.801-1.652-4.933-4.052-6.347-1.994-1.176-4.099-1.273-6.17-.167-1.279.683-2.158 1.804-2.763 3.085-.907 1.923-1.708 3.896-2.547 5.852a.34.34 0 0 0 .013.26c.594 1.146 1.248 2.254 2.037 3.279 1.676 2.177 3.889 3.184 6.623 3.006 2.432-.158 4.341-1.267 5.686-3.299.921-1.392 1.218-2.968 1.212-4.613zm-32.345-.058c0 .207-.005.412.002.619.005.154.026.308.042.461.196 1.837.932 3.396 2.358 4.603 1.409 1.191 3.013 1.665 4.822 1.232 1.762-.421 3.041-1.503 3.915-3.07.928-1.663 1.592-3.44 2.238-5.224a.44.44 0 0 0-.031-.312 18.685 18.685 0 0 0-.666-1.22c-.662-1.09-1.447-2.074-2.527-2.782-1.202-.788-2.546-1.052-3.958-1-2.092.076-3.802.925-5.045 2.627-.879 1.207-1.172 2.597-1.15 4.066zM35.425 25.176v5.438H.01v-5.438h35.415zM0 38.968V33.53h35.424v5.438H0z"/>
  </g>
</svg>
