<svg xmlns="http://www.w3.org/2000/svg" width="40.572" height="40.573">
  <path d="M39.748 36.524a.826.826 0 0 0-.826.826v1.571H1.651v-5.504h38.097a.825.825 0 0 0 0-1.651H.825a.828.828 0 0 0-.825.828v7.153c0 .456.369.826.825.826h38.922c.455 0 .824-.37.824-.826v-2.396a.823.823 0 0 0-.823-.827zM19.703 27.999a.828.828 0 0 0 1.167 0L31.378 17.49a.827.827 0 0 0 0-1.168.824.824 0 0 0-1.167 0l-9.925 9.925-9.926-9.925a.824.824 0 0 0-1.167 0 .827.827 0 0 0 0 1.168l10.51 10.509z"/>
  <path d="M20.287 23.589c.456 0 .825-.37.825-.825V.825a.825.825 0 0 0-1.652 0v21.938c0 .456.37.826.827.826z"/>
</svg>
