<svg xmlns="http://www.w3.org/2000/svg" width="34" height="34">
  <g fill="#FFF">
    <path d="M1.033 4.959a.678.678 0 0 0 .677-.678c0-1.045.85-1.895 1.895-1.895h6.061l4.77 5.209c.128.141.31.221.5.221h15.459c1.045 0 1.895.851 1.895 1.896a.678.678 0 0 0 1.356 0 3.254 3.254 0 0 0-3.25-3.25H15.233l-4.769-5.211a.68.68 0 0 0-.5-.22H3.605a3.254 3.254 0 0 0-3.25 3.25c0 .374.303.678.678.678z"/>
    <path d="M30.395 10.981H15.233L10.464 5.77a.676.676 0 0 0-.5-.22H3.605a3.254 3.254 0 0 0-3.25 3.251v13.393a.678.678 0 1 0 1.355 0V8.801c0-1.046.85-1.896 1.895-1.896h6.061l4.77 5.21c.128.141.31.22.5.22h15.459c1.045 0 1.895.85 1.895 1.896V29.72c0 1.044-.85 1.895-1.895 1.895H3.605A1.897 1.897 0 0 1 1.71 29.72a.68.68 0 0 0-.677-.679.679.679 0 0 0-.678.679 3.253 3.253 0 0 0 3.25 3.249h26.79a3.254 3.254 0 0 0 3.25-3.249V14.231a3.254 3.254 0 0 0-3.25-3.25z"/>
  </g>
</svg>
