<?xml version="1.0" encoding="utf-8"?>
<!-- Generator: Adobe Illustrator 16.0.0, SVG Export Plug-In . SVG Version: 6.00 Build 0)  -->
<!DOCTYPE svg PUBLIC "-//W3C//DTD SVG 1.1//EN" "http://www.w3.org/Graphics/SVG/1.1/DTD/svg11.dtd">
<svg version="1.1" id="Layer_1" xmlns="http://www.w3.org/2000/svg" xmlns:xlink="http://www.w3.org/1999/xlink" x="0px" y="0px"
	 width="257.056px" height="713.055px" viewBox="0 0 257.056 713.055" enable-background="new 0 0 257.056 713.055"
	 xml:space="preserve">
<g opacity="0.4">
	<path fill="#DAFFED" d="M186.649,702.995c-2.99-8.943-4.471-22.717-4.471-41.355c-18.639,34.287-46.209,51.416-82.711,51.416
		c-31.287,0-55.705-8.58-73.206-25.709C8.75,670.217,0,642.276,0,603.528V501.817c0-33.521,4.642-61.646,13.967-84.385
		c9.314-22.715,21.972-41.908,38.002-57.557c16.021-15.648,34.821-28.859,56.44-39.674c21.609-10.794,44.709-21.407,69.299-31.85
		V137.469c0-19.363-3.545-34.266-10.623-44.707c-7.089-10.424-20.301-15.648-39.674-15.648c-20.12,0-33.532,5.225-40.238,15.648
		c-6.696,10.441-10.05,25.344-10.05,44.707v145.294H8.942V136.352c0-45.443,9.495-79.529,28.497-102.266
		C56.44,11.367,87.173,0,129.646,0c81.202,0,121.822,45.453,121.822,136.352v487.295c0,16.393,0.372,31.668,1.118,45.814
		c0.735,14.17,2.235,25.348,4.47,33.533H186.649z M177.708,349.816c-22.354,8.206-40.43,17.149-54.204,26.825
		c-13.795,9.697-24.229,20.684-31.297,32.969c-7.089,12.295-11.73,26.463-13.966,42.473c-2.236,16.031-3.354,34.479-3.354,55.322
		v73.77c0,38.002,17.491,56.992,52.523,56.992c11.177,0,21.407-3.352,30.741-10.051c9.305-6.705,15.82-17.881,19.556-33.529V349.816
		z"/>
</g>
</svg>
