<?xml version="1.0" encoding="utf-8"?>
<!-- Generator: Adobe Illustrator 16.0.0, SVG Export Plug-In . SVG Version: 6.00 Build 0)  -->
<!DOCTYPE svg PUBLIC "-//W3C//DTD SVG 1.1//EN" "http://www.w3.org/Graphics/SVG/1.1/DTD/svg11.dtd">
<svg version="1.1" id="Layer_1" xmlns="http://www.w3.org/2000/svg" xmlns:xlink="http://www.w3.org/1999/xlink" x="0px" y="0px"
	 width="187.269px" height="69.624px" viewBox="0 0 187.269 69.624" enable-background="new 0 0 187.269 69.624"
	 xml:space="preserve">
<g>
	<path fill="#FFFFFF" d="M0,59.256V0h15.696v5.544H5.472v20.808h7.2v5.473h-7.2v22.031h10.584v5.4H0z"/>
	<path fill="#FFFFFF" d="M20.231,59.256V0h4.967v59.256H20.231z"/>
	<path fill="#FFFFFF" d="M40.39,69.264V14.688h4.176c0.145,1.105,0.217,2.232,0.217,3.385c0.527-1.248,1.271-2.196,2.232-2.845
		c0.959-0.647,2.256-0.972,3.887-0.972c2.064,0,3.637,0.673,4.717,2.016c1.08,1.345,1.619,3.456,1.619,6.336v29.16
		c0,3.024-0.504,5.137-1.512,6.336s-2.664,1.801-4.967,1.801c-1.201,0-2.27-0.252-3.205-0.757c-0.936-0.504-1.668-1.163-2.195-1.979
		v12.096H40.39z M52.343,23.256c0-1.392-0.252-2.363-0.756-2.916c-0.504-0.551-1.309-0.828-2.412-0.828
		c-0.818,0-1.574,0.241-2.27,0.72c-0.695,0.48-1.213,1.201-1.547,2.16v29.664c0.334,0.961,0.852,1.681,1.547,2.16
		c0.695,0.48,1.451,0.72,2.27,0.72c1.104,0,1.908-0.275,2.412-0.828c0.504-0.551,0.756-1.476,0.756-2.771V23.256z"/>
	<path fill="#FFFFFF" d="M62.207,59.256V14.688h4.176c0.145,1.105,0.215,2.186,0.215,3.24c0.625-1.296,1.381-2.231,2.27-2.808
		c0.887-0.576,1.932-0.864,3.131-0.864c0.672,0,1.176,0.097,1.512,0.288v5.544c-0.24-0.191-0.576-0.324-1.008-0.396
		c-0.432-0.071-0.84-0.107-1.223-0.107c-0.77,0-1.525,0.18-2.27,0.54c-0.744,0.359-1.355,1.068-1.836,2.124v37.008H62.207z"/>
	<path fill="#FFFFFF" d="M76.39,22.896c0-2.88,0.672-5.087,2.016-6.624c1.344-1.535,3.408-2.304,6.193-2.304
		c2.734,0,4.787,0.769,6.154,2.304c1.369,1.537,2.053,3.744,2.053,6.624v28.152c0,2.88-0.684,5.076-2.053,6.588
		c-1.367,1.512-3.42,2.269-6.154,2.269c-2.785,0-4.85-0.757-6.193-2.269s-2.016-3.708-2.016-6.588V22.896z M87.982,23.04
		c0-1.248-0.229-2.22-0.684-2.916c-0.457-0.695-1.357-1.044-2.699-1.044c-1.346,0-2.246,0.349-2.701,1.044
		c-0.457,0.696-0.684,1.668-0.684,2.916v28.008c0,1.249,0.227,2.196,0.684,2.844c0.455,0.648,1.355,0.973,2.701,0.973
		c1.342,0,2.242-0.336,2.699-1.009c0.455-0.671,0.684-1.655,0.684-2.951V23.04z"/>
	<path fill="#FFFFFF" d="M96.119,64.296c0.863,0.239,1.68,0.36,2.447,0.36c1.008,0,1.74-0.409,2.195-1.225
		c0.457-0.816,0.805-1.92,1.045-3.312l0.287-1.8l-6.551-43.633h5.184c0.24,1.681,0.492,3.553,0.756,5.616
		c0.264,2.064,0.516,4.201,0.756,6.408c0.24,2.208,0.492,4.417,0.756,6.624c0.264,2.208,0.492,4.272,0.684,6.192
		s0.371,3.647,0.541,5.184c0.168,1.537,0.299,2.712,0.396,3.528c0.096-0.816,0.227-1.991,0.395-3.528
		c0.168-1.536,0.371-3.264,0.613-5.184c0.238-1.92,0.49-3.984,0.756-6.192c0.264-2.207,0.539-4.416,0.828-6.624
		c0.287-2.207,0.586-4.344,0.9-6.408c0.311-2.063,0.611-3.936,0.898-5.616h4.752l-6.768,45.145c-0.24,1.584-0.529,2.976-0.863,4.176
		c-0.336,1.199-0.805,2.22-1.404,3.06c-0.602,0.84-1.381,1.477-2.34,1.908c-0.961,0.433-2.16,0.648-3.6,0.648
		c-0.721,0-1.609-0.12-2.664-0.36V64.296z"/>
	<path fill="#FFFFFF" d="M127.437,41.112h4.68v9.792c0,6-2.664,9-7.992,9c-5.137,0-7.703-3-7.703-9V23.112
		c0-3.024,0.66-5.304,1.98-6.841c1.318-1.535,3.227-2.304,5.723-2.304c5.328,0,7.992,3.049,7.992,9.145v14.327h-11.088v13.465
		c0,2.64,1.033,3.96,3.096,3.96c2.209,0,3.313-1.32,3.313-3.96V41.112z M127.437,23.112c0-2.64-1.104-3.96-3.313-3.96
		c-2.063,0-3.096,1.32-3.096,3.96V33.84h6.408V23.112z"/>
	<path fill="#FFFFFF" d="M148.029,41.04h4.609v9.936c0,2.736-0.637,4.908-1.908,6.517c-1.273,1.608-3.277,2.412-6.012,2.412
		c-2.736,0-4.777-0.828-6.121-2.484s-2.016-3.853-2.016-6.588V23.184c0-2.735,0.672-4.955,2.016-6.66
		c1.344-1.703,3.385-2.556,6.121-2.556c2.734,0,4.715,0.841,5.939,2.521c1.225,1.681,1.836,3.888,1.836,6.624v9.647h-4.465v-9.72
		c0-2.64-1.104-3.96-3.311-3.96c-1.105,0-1.934,0.359-2.484,1.08c-0.553,0.72-0.828,1.704-0.828,2.952v27.72
		c0,2.688,1.104,4.032,3.313,4.032c2.207,0,3.311-1.32,3.311-3.96V41.04z"/>
	<path fill="#FFFFFF" d="M167.757,59.544c-0.24,0.096-0.588,0.18-1.043,0.252c-0.457,0.072-0.877,0.108-1.26,0.108
		c-2.641,0-4.609-0.816-5.904-2.448c-1.297-1.632-1.945-3.889-1.945-6.769V19.08h-2.088v-4.393h2.088V0.576h4.969v14.111h5.041
		v4.393h-5.041v31.607c0,1.825,0.324,3.108,0.973,3.853s1.738,1.116,3.275,1.116c0.145,0,0.299,0,0.469,0
		c0.166,0,0.324-0.024,0.467-0.072V59.544z"/>
	<path fill="#FFFFFF" d="M170.853,22.896c0-2.88,0.67-5.087,2.016-6.624c1.342-1.535,3.406-2.304,6.191-2.304
		c2.736,0,4.787,0.769,6.156,2.304c1.367,1.537,2.053,3.744,2.053,6.624v28.152c0,2.88-0.686,5.076-2.053,6.588
		c-1.369,1.512-3.42,2.269-6.156,2.269c-2.785,0-4.85-0.757-6.191-2.269c-1.346-1.512-2.016-3.708-2.016-6.588V22.896z
		 M182.445,23.04c0-1.248-0.229-2.22-0.686-2.916c-0.455-0.695-1.355-1.044-2.699-1.044s-2.244,0.349-2.699,1.044
		c-0.457,0.696-0.686,1.668-0.686,2.916v28.008c0,1.249,0.229,2.196,0.686,2.844c0.455,0.648,1.355,0.973,2.699,0.973
		s2.244-0.336,2.699-1.009c0.457-0.671,0.686-1.655,0.686-2.951V23.04z"/>
</g>
</svg>
