<?xml version="1.0" encoding="utf-8"?>
<!-- Generator: Adobe Illustrator 16.0.0, SVG Export Plug-In . SVG Version: 6.00 Build 0)  -->
<!DOCTYPE svg PUBLIC "-//W3C//DTD SVG 1.1//EN" "http://www.w3.org/Graphics/SVG/1.1/DTD/svg11.dtd">
<svg version="1.1" id="Layer_1" xmlns="http://www.w3.org/2000/svg" xmlns:xlink="http://www.w3.org/1999/xlink" x="0px" y="0px"
	 width="40.572px" height="40.573px" viewBox="0 0 40.572 40.573" enable-background="new 0 0 40.572 40.573" xml:space="preserve">
<g>
	<path d="M39.748,36.524c-0.456,0-0.826,0.37-0.826,0.826v1.571H1.651v-5.504h38.097c0.455,0,0.824-0.37,0.824-0.824
		c0-0.456-0.369-0.827-0.824-0.827H0.825C0.369,31.767,0,32.138,0,32.594v7.153c0,0.456,0.369,0.826,0.825,0.826h38.922
		c0.455,0,0.824-0.37,0.824-0.826v-2.396C40.574,36.895,40.203,36.524,39.748,36.524z"/>
	<path d="M19.703,27.999c0.154,0.154,0.365,0.242,0.584,0.242c0.219,0,0.429-0.088,0.583-0.242L31.378,17.49
		c0.322-0.323,0.322-0.846,0-1.168c-0.322-0.323-0.845-0.323-1.167,0l-9.925,9.925l-9.926-9.925c-0.322-0.323-0.845-0.323-1.167,0
		c-0.322,0.322-0.322,0.845,0,1.168L19.703,27.999z"/>
	<path d="M20.287,23.589c0.456,0,0.825-0.37,0.825-0.825V0.825c0-0.456-0.37-0.825-0.825-0.825C19.83,0,19.46,0.369,19.46,0.825
		v21.938C19.46,23.219,19.83,23.589,20.287,23.589z"/>
</g>
</svg>
