<?xml version="1.0" encoding="utf-8"?>
<!-- Generator: Adobe Illustrator 16.0.0, SVG Export Plug-In . SVG Version: 6.00 Build 0)  -->
<!DOCTYPE svg PUBLIC "-//W3C//DTD SVG 1.1//EN" "http://www.w3.org/Graphics/SVG/1.1/DTD/svg11.dtd">
<svg version="1.1" id="Layer_1" xmlns="http://www.w3.org/2000/svg" xmlns:xlink="http://www.w3.org/1999/xlink" x="0px" y="0px"
	 width="34px" height="34px" viewBox="0 0 34 34" enable-background="new 0 0 34 34" xml:space="preserve">
<path fill="#FFFFFF" d="M30.419,16.866c-0.444,0-0.806,0.36-0.806,0.805v14.361h-8.65v-9.015c0-0.445-0.361-0.806-0.806-0.806
	h-6.314c-0.445,0-0.806,0.36-0.806,0.806v7.147c0,0.446,0.361,0.807,0.806,0.807c0.445,0,0.806-0.36,0.806-0.807v-6.342h4.703v8.209
	H4.387v-19.73L17,2.194l12.915,10.35c0.348,0.279,0.854,0.223,1.134-0.125c0.277-0.348,0.222-0.854-0.125-1.133L17.504,0.532
	c-0.294-0.236-0.714-0.236-1.008,0L3.077,11.286c-0.191,0.153-0.302,0.385-0.302,0.629v20.924c0,0.445,0.361,0.806,0.807,0.806
	h26.838c0.445,0,0.807-0.36,0.807-0.806V17.671C31.226,17.227,30.864,16.866,30.419,16.866z"/>
</svg>
