<?xml version="1.0" encoding="utf-8"?>
<!-- Generator: Adobe Illustrator 16.0.0, SVG Export Plug-In . SVG Version: 6.00 Build 0)  -->
<!DOCTYPE svg PUBLIC "-//W3C//DTD SVG 1.1//EN" "http://www.w3.org/Graphics/SVG/1.1/DTD/svg11.dtd">
<svg version="1.1" id="Layer_1" xmlns="http://www.w3.org/2000/svg" xmlns:xlink="http://www.w3.org/1999/xlink" x="0px" y="0px"
	 width="35.538px" height="38.968px" viewBox="0 0 35.538 38.968" enable-background="new 0 0 35.538 38.968" xml:space="preserve">
<g>
	<path fill-rule="evenodd" clip-rule="evenodd" fill="#FFFFFF" d="M17.607,13.537c-0.379,0.587-0.729,1.167-1.118,1.722
		c-0.751,1.07-1.628,2.021-2.748,2.722c-1.17,0.732-2.461,1.084-3.827,1.173c-1.837,0.121-3.608-0.141-5.226-1.066
		c-2.614-1.498-4.142-3.733-4.446-6.753c-0.179-1.768-0.05-3.515,0.684-5.155c1.14-2.548,3.038-4.264,5.81-4.817
		c2.143-0.429,4.184-0.069,5.949,1.312c1,0.782,1.723,1.816,2.41,2.871c0.252,0.387,0.488,0.785,0.746,1.203
		c0.229-0.443,0.439-0.867,0.665-1.284c0.582-1.077,1.253-2.092,2.096-2.987c1.145-1.217,2.566-1.908,4.189-2.205
		c1.986-0.362,3.981-0.428,5.912,0.232c3.547,1.213,5.813,3.645,6.567,7.346c0.495,2.429,0.338,4.844-0.765,7.1
		c-1.277,2.613-3.277,4.477-6.123,5.253c-2.658,0.726-5.037,0.056-7.08-1.765c-1.059-0.944-1.842-2.127-2.636-3.292
		C18.309,14.619,17.967,14.083,17.607,13.537z M33.988,10.25c0-0.215,0.004-0.43-0.002-0.645c-0.004-0.138-0.024-0.274-0.037-0.411
		c-0.277-2.801-1.652-4.933-4.052-6.347c-1.994-1.176-4.099-1.273-6.17-0.167c-1.279,0.683-2.158,1.804-2.763,3.085
		c-0.907,1.923-1.708,3.896-2.547,5.852c-0.032,0.072-0.024,0.189,0.013,0.26c0.594,1.146,1.248,2.254,2.037,3.279
		c1.676,2.177,3.889,3.184,6.623,3.006c2.432-0.158,4.341-1.267,5.686-3.299C33.697,13.471,33.994,11.895,33.988,10.25z
		 M1.643,10.192c0,0.207-0.005,0.412,0.002,0.619c0.005,0.154,0.026,0.308,0.042,0.461c0.196,1.837,0.932,3.396,2.358,4.603
		c1.409,1.191,3.013,1.665,4.822,1.232c1.762-0.421,3.041-1.503,3.915-3.07c0.928-1.663,1.592-3.44,2.238-5.224
		c0.032-0.09,0.014-0.225-0.031-0.312c-0.211-0.412-0.425-0.825-0.666-1.22c-0.662-1.09-1.447-2.074-2.527-2.782
		c-1.202-0.788-2.546-1.052-3.958-1C5.746,3.575,4.036,4.424,2.793,6.126C1.914,7.333,1.621,8.723,1.643,10.192z"/>
	<path fill-rule="evenodd" clip-rule="evenodd" fill="#FFFFFF" d="M35.425,25.176c0,1.82,0,3.622,0,5.438c-11.806,0-23.6,0-35.415,0
		c0-1.803,0-3.611,0-5.438C11.803,25.176,23.604,25.176,35.425,25.176z"/>
	<path fill-rule="evenodd" clip-rule="evenodd" fill="#FFFFFF" d="M0,38.968c0-1.819,0-3.622,0-5.438c11.812,0,23.611,0,35.424,0
		c0,1.814,0,3.616,0,5.438C23.623,38.968,11.822,38.968,0,38.968z"/>
</g>
</svg>
