<?xml version="1.0" encoding="utf-8"?>
<!-- Generator: Adobe Illustrator 16.0.0, SVG Export Plug-In . SVG Version: 6.00 Build 0)  -->
<!DOCTYPE svg PUBLIC "-//W3C//DTD SVG 1.1//EN" "http://www.w3.org/Graphics/SVG/1.1/DTD/svg11.dtd">
<svg version="1.1" id="Layer_1" xmlns="http://www.w3.org/2000/svg" xmlns:xlink="http://www.w3.org/1999/xlink" x="0px" y="0px"
	 width="34px" height="34px" viewBox="0 0 34 34" enable-background="new 0 0 34 34" xml:space="preserve">
<g>
	<path fill="#FFFFFF" d="M1.033,4.959c0.374,0,0.677-0.304,0.677-0.678c0-1.045,0.85-1.895,1.895-1.895h6.061l4.77,5.209
		c0.128,0.141,0.31,0.221,0.5,0.221h15.459c1.045,0,1.895,0.851,1.895,1.896c0,0.374,0.305,0.677,0.678,0.677
		c0.375,0,0.678-0.303,0.678-0.677c0-1.792-1.459-3.25-3.25-3.25H15.233l-4.769-5.211c-0.129-0.14-0.31-0.22-0.5-0.22H3.605
		c-1.792,0-3.25,1.458-3.25,3.25C0.355,4.655,0.658,4.959,1.033,4.959z"/>
	<path fill="#FFFFFF" d="M30.395,10.981H15.233L10.464,5.77c-0.129-0.141-0.31-0.22-0.5-0.22H3.605c-1.792,0-3.25,1.458-3.25,3.251
		v13.393c0,0.374,0.303,0.678,0.678,0.678c0.374,0,0.677-0.304,0.677-0.678V8.801c0-1.046,0.85-1.896,1.895-1.896h6.061l4.77,5.21
		c0.128,0.141,0.31,0.22,0.5,0.22h15.459c1.045,0,1.895,0.85,1.895,1.896V29.72c0,1.044-0.85,1.895-1.895,1.895H3.605
		c-1.045,0-1.895-0.85-1.895-1.895c0-0.374-0.304-0.679-0.677-0.679c-0.375,0-0.678,0.305-0.678,0.679
		c0,1.792,1.458,3.249,3.25,3.249h26.79c1.791,0,3.25-1.457,3.25-3.249V14.231C33.645,12.438,32.186,10.981,30.395,10.981z"/>
</g>
</svg>
