<?xml version="1.0" encoding="utf-8"?>
<!-- Generator: Adobe Illustrator 16.0.0, SVG Export Plug-In . SVG Version: 6.00 Build 0)  -->
<!DOCTYPE svg PUBLIC "-//W3C//DTD SVG 1.1//EN" "http://www.w3.org/Graphics/SVG/1.1/DTD/svg11.dtd">
<svg version="1.1" id="Layer_1" xmlns="http://www.w3.org/2000/svg" xmlns:xlink="http://www.w3.org/1999/xlink" x="0px" y="0px"
	 width="34px" height="34px" viewBox="0 0 34 34" enable-background="new 0 0 34 34" xml:space="preserve">
<path fill="#FFFFFF" d="M28.772,5.229c-6.49-6.49-17.052-6.49-23.542,0c-2.278,2.277-3.835,5.139-4.505,8.273
	c-0.652,3.053-0.438,6.216,0.618,9.147c0.127,0.352,0.516,0.534,0.867,0.407s0.534-0.515,0.407-0.866
	c-0.97-2.693-1.167-5.6-0.567-8.405c0.615-2.879,2.046-5.506,4.138-7.599c5.962-5.962,15.665-5.962,21.625,0
	c2.84,2.839,4.43,6.614,4.476,10.628c0.048,4.008-1.446,7.812-4.204,10.713c-0.032,0.034-0.065,0.068-0.098,0.103
	c-0.057,0.062-0.113,0.124-0.174,0.183c-5.961,5.962-15.664,5.962-21.625,0c-0.032-0.032-0.063-0.064-0.093-0.097
	c-0.002-0.062-0.003-0.124-0.003-0.185c0-0.137,0.003-0.271,0.008-0.407c0.001-0.046,0.005-0.091,0.007-0.136
	c0.005-0.09,0.009-0.18,0.016-0.27c0.004-0.054,0.01-0.106,0.014-0.159c0.007-0.081,0.014-0.162,0.023-0.242
	c0.006-0.057,0.015-0.113,0.021-0.169c0.01-0.077,0.02-0.152,0.03-0.229c0.009-0.059,0.019-0.115,0.029-0.173
	c0.012-0.073,0.023-0.147,0.037-0.222c0.011-0.059,0.023-0.116,0.036-0.174c0.015-0.071,0.028-0.144,0.045-0.215
	c0.012-0.06,0.026-0.117,0.041-0.175c0.017-0.07,0.034-0.141,0.052-0.211c0.015-0.059,0.032-0.116,0.047-0.174
	c0.02-0.068,0.04-0.139,0.06-0.207c0.018-0.057,0.036-0.114,0.055-0.172c0.021-0.066,0.043-0.135,0.066-0.203
	c0.019-0.056,0.04-0.113,0.06-0.169c0.024-0.066,0.048-0.134,0.073-0.2c0.021-0.057,0.043-0.112,0.066-0.167
	c0.027-0.066,0.053-0.132,0.081-0.196c0.023-0.056,0.047-0.111,0.072-0.166c0.028-0.063,0.058-0.128,0.087-0.192
	c0.025-0.055,0.051-0.108,0.078-0.162c0.031-0.063,0.062-0.126,0.094-0.189c0.027-0.053,0.055-0.105,0.083-0.158
	c0.034-0.063,0.067-0.124,0.102-0.187c0.029-0.052,0.059-0.104,0.088-0.154c0.036-0.062,0.071-0.123,0.108-0.182
	c0.031-0.053,0.062-0.103,0.094-0.153c0.037-0.059,0.076-0.118,0.115-0.178c0.033-0.05,0.065-0.099,0.099-0.147
	c0.04-0.06,0.081-0.118,0.122-0.175c0.034-0.048,0.068-0.097,0.103-0.145c0.042-0.058,0.085-0.114,0.129-0.172
	c0.036-0.045,0.071-0.092,0.108-0.138c0.044-0.057,0.09-0.111,0.135-0.167c0.037-0.045,0.074-0.09,0.113-0.135
	c0.046-0.056,0.094-0.109,0.142-0.164c0.039-0.043,0.077-0.086,0.116-0.13c0.049-0.054,0.099-0.105,0.149-0.158
	c0.04-0.043,0.08-0.084,0.12-0.125c0.052-0.053,0.104-0.104,0.157-0.155c0.041-0.04,0.082-0.081,0.124-0.12
	c0.054-0.052,0.109-0.101,0.165-0.15c0.042-0.038,0.083-0.077,0.126-0.114c0.057-0.05,0.115-0.099,0.173-0.147
	c0.042-0.035,0.084-0.072,0.127-0.107c0.06-0.05,0.122-0.097,0.183-0.144c0.043-0.034,0.084-0.068,0.128-0.101
	c0.064-0.049,0.129-0.097,0.195-0.145c0.042-0.03,0.083-0.061,0.124-0.09c0.072-0.05,0.146-0.101,0.221-0.148
	c0.037-0.025,0.072-0.051,0.109-0.074c0.097-0.063,0.195-0.123,0.293-0.184c0.016-0.009,0.031-0.019,0.046-0.028
	c0.114-0.068,0.23-0.135,0.347-0.199c0.04-0.022,0.082-0.042,0.122-0.064c0.078-0.041,0.155-0.083,0.234-0.123
	c0.051-0.025,0.103-0.05,0.154-0.073c0.065-0.032,0.129-0.064,0.194-0.094c1.228,1.174,2.866,1.837,4.566,1.837
	c1.701,0,3.34-0.663,4.566-1.837c2.398,1.109,4.359,3.1,5.425,5.521c0.151,0.344,0.55,0.498,0.894,0.347
	c0.342-0.15,0.498-0.55,0.347-0.893c-1.165-2.647-3.194-4.764-5.761-6.04c0.744-1.094,1.148-2.384,1.148-3.715
	c0-3.65-2.97-6.619-6.619-6.619c-0.375,0-0.677,0.304-0.677,0.678s0.303,0.678,0.677,0.678c2.902,0,5.264,2.361,5.264,5.264
	c0,1.297-0.482,2.547-1.358,3.518l0,0c-1,1.108-2.423,1.744-3.905,1.744s-2.906-0.636-3.905-1.744c0,0,0,0,0,0
	c-0.875-0.972-1.357-2.221-1.357-3.518c0-1.417,0.554-2.746,1.561-3.742c0.266-0.264,0.269-0.691,0.005-0.958
	s-0.692-0.269-0.958-0.005c-1.266,1.252-1.963,2.923-1.963,4.704c0,1.33,0.402,2.62,1.146,3.712c-0.007,0.004-0.014,0.007-0.02,0.01
	c-0.053,0.027-0.105,0.055-0.158,0.082c-0.08,0.041-0.16,0.082-0.239,0.126c-0.057,0.03-0.111,0.063-0.167,0.094
	c-0.074,0.042-0.148,0.083-0.221,0.127c-0.057,0.033-0.112,0.067-0.168,0.103c-0.069,0.043-0.14,0.086-0.209,0.131
	c-0.056,0.036-0.111,0.074-0.167,0.11c-0.067,0.044-0.134,0.089-0.2,0.136c-0.056,0.038-0.11,0.077-0.165,0.117
	c-0.065,0.047-0.129,0.094-0.192,0.14c-0.054,0.042-0.107,0.083-0.161,0.124C9.399,17.902,9.338,17.951,9.277,18
	c-0.053,0.043-0.105,0.086-0.157,0.129C9.06,18.18,9,18.229,8.941,18.282c-0.052,0.045-0.102,0.089-0.152,0.134
	c-0.059,0.052-0.116,0.104-0.173,0.159c-0.049,0.045-0.099,0.092-0.147,0.138c-0.056,0.056-0.111,0.11-0.167,0.166
	c-0.047,0.047-0.094,0.093-0.141,0.142C8.107,19.077,8.053,19.136,8,19.193c-0.045,0.049-0.09,0.097-0.134,0.146
	c-0.054,0.06-0.106,0.12-0.158,0.182c-0.042,0.049-0.085,0.097-0.126,0.146c-0.053,0.063-0.104,0.129-0.156,0.193
	c-0.038,0.049-0.078,0.096-0.116,0.145c-0.055,0.07-0.107,0.142-0.159,0.212c-0.034,0.045-0.068,0.089-0.101,0.134
	c-0.067,0.093-0.131,0.187-0.195,0.281c-0.017,0.024-0.035,0.049-0.052,0.074c-0.08,0.119-0.157,0.239-0.232,0.361
	c-0.026,0.042-0.051,0.085-0.076,0.128c-0.049,0.081-0.098,0.161-0.145,0.244c-0.029,0.052-0.057,0.104-0.085,0.155
	c-0.042,0.075-0.083,0.148-0.123,0.225c-0.029,0.056-0.057,0.112-0.085,0.168c-0.037,0.073-0.073,0.146-0.109,0.22
	c-0.028,0.06-0.055,0.118-0.083,0.177c-0.033,0.072-0.066,0.146-0.099,0.218c-0.026,0.061-0.051,0.121-0.077,0.183
	c-0.031,0.073-0.061,0.146-0.09,0.22c-0.025,0.062-0.048,0.124-0.072,0.187c-0.028,0.074-0.055,0.147-0.082,0.221
	c-0.022,0.064-0.044,0.128-0.066,0.191c-0.025,0.075-0.049,0.149-0.073,0.225c-0.02,0.064-0.04,0.128-0.059,0.193
	c-0.023,0.076-0.044,0.151-0.066,0.229c-0.018,0.064-0.035,0.13-0.052,0.194c-0.02,0.077-0.04,0.154-0.057,0.232
	C5.056,24.74,5.04,24.806,5.026,24.87c-0.017,0.079-0.033,0.158-0.049,0.238c-0.012,0.064-0.026,0.131-0.038,0.195
	c-0.014,0.081-0.028,0.162-0.041,0.244c-0.011,0.064-0.021,0.129-0.031,0.193c-0.012,0.084-0.023,0.169-0.034,0.254
	c-0.008,0.063-0.016,0.125-0.023,0.188c-0.01,0.089-0.018,0.178-0.025,0.267c-0.005,0.06-0.012,0.119-0.016,0.179
	c-0.007,0.101-0.012,0.201-0.017,0.3c-0.002,0.05-0.006,0.1-0.008,0.15c-0.005,0.149-0.008,0.301-0.008,0.452
	c0,0.163,0.005,0.317,0.012,0.489c0.002,0.04,0.007,0.078,0.015,0.115c0.001,0.004,0.001,0.006,0.002,0.009
	c0.008,0.037,0.02,0.073,0.034,0.107c0.001,0.003,0.002,0.007,0.003,0.01c0.015,0.033,0.033,0.066,0.052,0.096
	c0.003,0.006,0.005,0.01,0.007,0.013c0.021,0.03,0.043,0.058,0.067,0.085c0.002,0.002,0.003,0.004,0.005,0.006l0.089,0.096
	c0.067,0.072,0.135,0.144,0.206,0.215C8.475,32.016,12.738,33.64,17,33.64c4.263,0,8.526-1.624,11.772-4.868
	c0.07-0.071,0.138-0.144,0.205-0.215l0.09-0.096c3.002-3.159,4.627-7.3,4.576-11.662C33.593,12.429,31.863,8.32,28.772,5.229z"/>
</svg>
