<?xml version="1.0" encoding="utf-8"?>
<!-- Generator: Adobe Illustrator 16.0.0, SVG Export Plug-In . SVG Version: 6.00 Build 0)  -->
<!DOCTYPE svg PUBLIC "-//W3C//DTD SVG 1.1//EN" "http://www.w3.org/Graphics/SVG/1.1/DTD/svg11.dtd">
<svg version="1.1" id="Layer_1" xmlns="http://www.w3.org/2000/svg" xmlns:xlink="http://www.w3.org/1999/xlink" x="0px" y="0px"
	 width="84.364px" height="433.16px" viewBox="0 0 84.364 433.16" enable-background="new 0 0 84.364 433.16" xml:space="preserve">
<g>
	<g>
		<path fill="#FF4C3A" d="M72.518,324.801c-0.683,0.229-1.732,0.341-3.154,0.341c2.615,1.422,3.921,3.524,3.921,6.308
			c0,2.386-0.654,4.248-1.96,5.583c-1.307,1.335-3.438,2.002-6.393,2.002h-7.756c-2.557,0-4.701-0.354-6.436-1.064
			c-1.732-0.711-3.195-1.676-4.389-2.898c-1.193-1.222-2.201-2.655-3.025-4.304c-0.823-1.648-1.633-3.41-2.429-5.285H29.391
			c-1.477,0-2.613,0.271-3.409,0.811c-0.795,0.54-1.193,1.548-1.193,3.025c0,1.534,0.398,2.557,1.193,3.068
			c0.796,0.511,1.933,0.767,3.409,0.767h11.08v5.199H29.306c-3.466,0-6.064-0.725-7.799-2.173c-1.732-1.449-2.6-3.793-2.6-7.032
			c0-6.192,3.467-9.29,10.398-9.29h37.16c1.25,0,2.416-0.028,3.494-0.085c1.08-0.056,1.933-0.17,2.558-0.341V324.801z
			 M45.584,325.482c0.626,1.705,1.308,3.083,2.046,4.134c0.739,1.052,1.577,1.848,2.514,2.387c0.938,0.54,2.019,0.895,3.239,1.065
			c1.223,0.17,2.63,0.255,4.219,0.255h5.626c2.897,0,4.346-1.333,4.346-4.005c0-0.853-0.256-1.633-0.766-2.345
			c-0.512-0.709-1.364-1.206-2.558-1.491H45.584z"/>
		<path fill="#FF4C3A" d="M84.364,313.552H19.76v-4.943c1.308-0.171,2.642-0.256,4.006-0.256c-1.478-0.624-2.6-1.504-3.367-2.643
			c-0.767-1.136-1.149-2.669-1.149-4.602c0-2.443,0.796-4.305,2.385-5.583c1.593-1.278,4.092-1.917,7.501-1.918h34.519
			c3.579,0,6.08,0.597,7.5,1.79s2.131,3.153,2.131,5.881c0,1.422-0.299,2.685-0.895,3.793c-0.597,1.108-1.377,1.975-2.344,2.6
			h14.318V313.552z M29.902,299.403c-1.647,0-2.798,0.299-3.452,0.895c-0.652,0.598-0.98,1.55-0.98,2.855
			c0,0.968,0.285,1.862,0.853,2.686c0.569,0.823,1.421,1.435,2.558,1.832h35.114c1.138-0.397,1.99-1.009,2.558-1.832
			c0.568-0.823,0.852-1.718,0.852-2.686c0-1.306-0.326-2.258-0.98-2.855c-0.652-0.596-1.746-0.895-3.281-0.895H29.902z"/>
		<path fill="#FF4C3A" d="M13.026,287.558H2.372v-5.881h10.654V287.558z M72.518,287.558H19.76v-5.881l52.758-0.001V287.558z"/>
		<path fill="#FF4C3A" d="M72.518,275.199L2.372,275.2v-5.881h70.146V275.199z"/>
		<path fill="#FF4C3A" d="M72.518,249.887c-0.683,0.228-1.732,0.341-3.154,0.341c2.615,1.421,3.921,3.523,3.921,6.307
			c0,2.387-0.654,4.248-1.96,5.583c-1.307,1.336-3.438,2.002-6.393,2.002h-7.756c-2.557,0-4.701-0.354-6.436-1.064
			c-1.732-0.71-3.195-1.676-4.389-2.898c-1.193-1.221-2.201-2.655-3.025-4.304c-0.823-1.647-1.633-3.409-2.429-5.284H29.391
			c-1.477,0-2.613,0.271-3.409,0.811c-0.795,0.54-1.193,1.548-1.193,3.025c0,1.534,0.398,2.557,1.193,3.068
			c0.796,0.511,1.933,0.767,3.409,0.767h11.08v5.198H29.306c-3.466,0-6.064-0.724-7.799-2.173c-1.732-1.448-2.6-3.792-2.6-7.031
			c0-6.192,3.467-9.29,10.398-9.29h37.16c1.25,0,2.416-0.028,3.494-0.086c1.08-0.056,1.933-0.17,2.558-0.341V249.887z
			 M45.584,250.568c0.626,1.704,1.308,3.082,2.046,4.134c0.739,1.052,1.577,1.847,2.514,2.387c0.938,0.54,2.019,0.895,3.239,1.064
			c1.223,0.171,2.63,0.256,4.219,0.256h5.626c2.897,0,4.346-1.334,4.346-4.006c0-0.853-0.256-1.633-0.766-2.344
			c-0.512-0.709-1.364-1.206-2.558-1.491H45.584z"/>
		<path fill="#FF4C3A" d="M72.518,238.637H2.372v-5.881h19.944c-1.022-0.624-1.846-1.491-2.472-2.6
			c-0.625-1.107-0.938-2.372-0.938-3.792c0-2.728,0.754-4.688,2.259-5.881c1.506-1.193,3.992-1.791,7.458-1.791h33.751
			c3.75,0,6.478,0.682,8.182,2.046c1.705,1.363,2.558,3.58,2.558,6.648c0,1.762-0.427,3.225-1.279,4.39
			c-0.852,1.164-1.931,2.088-3.238,2.77c0.682,0.114,1.351,0.242,2.003,0.383c0.653,0.143,1.293,0.328,1.918,0.555V238.637z
			 M29.05,224.488c-2.67,0-4.006,1.25-4.006,3.751c0,0.967,0.285,1.861,0.853,2.685c0.568,0.824,1.421,1.436,2.557,1.832h34.944
			c1.138-0.397,2.003-1.009,2.6-1.832s0.895-1.718,0.895-2.686c0-1.307-0.325-2.259-0.979-2.855
			c-0.653-0.597-1.804-0.895-3.452-0.895H29.05z"/>
		<path fill="#FF4C3A" d="M72.518,212.813H2.372v-5.881h70.146V212.813z"/>
		<path fill="#FF4C3A" d="M51.039,188.011v-5.54h11.592c7.103,0,10.653,3.153,10.653,9.461c0,6.08-3.551,9.119-10.653,9.119H29.731
			c-3.58,0-6.278-0.78-8.098-2.344c-1.817-1.562-2.727-3.82-2.727-6.775c0-6.308,3.609-9.461,10.824-9.461h16.961v13.125h15.938
			c3.125,0,4.687-1.221,4.687-3.664c0-2.613-1.562-3.921-4.687-3.921H51.039z M29.731,188.011c-3.124,0-4.688,1.308-4.688,3.921
			c0,2.443,1.563,3.664,4.688,3.664h12.699v-7.585H29.731z"/>
		<path fill="#FF4C3A" d="M72.518,163.636c-0.683,0.227-1.732,0.341-3.154,0.341c2.615,1.42,3.921,3.522,3.921,6.307
			c0,2.387-0.654,4.248-1.96,5.582c-1.307,1.337-3.438,2.003-6.393,2.003h-7.756c-2.557,0-4.701-0.354-6.436-1.064
			c-1.732-0.71-3.195-1.676-4.389-2.898c-1.193-1.221-2.201-2.655-3.025-4.304c-0.823-1.647-1.633-3.41-2.429-5.284H29.391
			c-1.477,0-2.613,0.271-3.409,0.81c-0.795,0.54-1.193,1.549-1.193,3.025c0,1.534,0.398,2.557,1.193,3.068
			c0.796,0.512,1.933,0.767,3.409,0.767h11.08v5.199H29.306c-3.466,0-6.064-0.725-7.799-2.173c-1.732-1.449-2.6-3.793-2.6-7.032
			c0-6.192,3.467-9.29,10.398-9.29h37.16c1.25,0,2.416-0.027,3.494-0.085c1.08-0.056,1.933-0.171,2.558-0.341V163.636z
			 M45.584,164.317c0.626,1.704,1.308,3.082,2.046,4.134c0.739,1.052,1.577,1.847,2.514,2.387c0.938,0.54,2.019,0.895,3.239,1.064
			c1.223,0.171,2.63,0.256,4.219,0.256h5.626c2.897,0,4.346-1.335,4.346-4.006c0-0.853-0.256-1.633-0.766-2.344
			c-0.512-0.71-1.364-1.206-2.558-1.491H45.584z"/>
		<path fill="#FF4C3A" d="M72.518,152.386H2.372v-5.881h70.146V152.386z"/>
		<path fill="#FF4C3A" d="M13.026,139.942H2.372v-5.881h10.654V139.942z M72.518,139.942H19.76v-5.881h52.758V139.942z"/>
		<path fill="#FF4C3A" d="M72.518,113.777H28.965c-1.534,0-2.628,0.256-3.281,0.768s-0.98,1.393-0.98,2.642
			c0,0.853,0.255,1.704,0.767,2.557s1.336,1.507,2.473,1.961h44.575v5.881H19.76v-4.943c1.308-0.171,2.642-0.256,4.006-0.256
			c-1.478-0.795-2.655-1.846-3.537-3.153c-0.88-1.307-1.321-2.783-1.321-4.432c0-2.387,0.768-4.134,2.302-5.242
			c1.533-1.107,4.005-1.662,7.415-1.662h43.894V113.777z"/>
		<path fill="#FF4C3A" d="M72.518,102.271h-47.56v2.558H19.76v-2.558h-7.33c-3.294,0-5.866-0.582-7.714-1.747
			c-1.845-1.164-2.77-3.281-2.77-6.35c0-0.682,0.043-1.363,0.128-2.045c0.086-0.683,0.213-1.279,0.384-1.79h5.028
			c-0.17,0.625-0.255,1.336-0.255,2.131c0,1.363,0.412,2.372,1.235,3.025c0.824,0.654,2.203,0.98,4.134,0.98h7.159v-5.967h5.198
			v5.967h47.56V102.271z"/>
		<path fill="#FF4C3A" d="M13.026,85.993H2.372v-5.881h10.654V85.993z M72.518,85.993H19.76v-5.881h52.758V85.993z"/>
		<path fill="#FF4C3A" d="M72.518,59.828H28.965c-1.534,0-2.628,0.256-3.281,0.768s-0.98,1.393-0.98,2.642
			c0,0.853,0.255,1.705,0.767,2.557c0.512,0.853,1.336,1.507,2.473,1.961h44.575v5.881H19.76v-4.943
			c1.308-0.171,2.642-0.256,4.006-0.256c-1.478-0.795-2.655-1.846-3.537-3.153c-0.88-1.307-1.321-2.783-1.321-4.432
			c0-2.387,0.768-4.134,2.302-5.242c1.533-1.107,4.005-1.662,7.415-1.662h43.894V59.828z"/>
		<path fill="#FF4C3A" d="M13.026,47.642H2.372V41.76h10.654V47.642z M72.518,47.642H19.76V41.76h52.758V47.642z"/>
		<path fill="#FF4C3A" d="M72.858,23.096c0.112,0.285,0.213,0.696,0.298,1.235c0.085,0.541,0.128,1.037,0.128,1.492
			c0,3.125-0.965,5.454-2.897,6.988c-1.931,1.534-4.603,2.302-8.012,2.302H24.958v2.472H19.76v-2.472H3.055v-5.881H19.76v-5.966
			h5.198v5.966h37.417c2.16,0,3.68-0.384,4.56-1.15c0.882-0.768,1.32-2.06,1.32-3.878c0-0.171,0-0.354,0-0.554
			s-0.027-0.384-0.085-0.555H72.858z"/>
		<path fill="#FF4C3A" d="M29.476,19.432c-3.409,0-6.022-0.794-7.842-2.386c-1.817-1.591-2.727-4.034-2.727-7.33
			c0-3.239,0.909-5.668,2.727-7.287C23.453,0.81,26.066,0,29.476,0h33.325C66.21,0,68.81,0.81,70.6,2.429s2.685,4.048,2.685,7.287
			c0,3.296-0.895,5.739-2.685,7.33c-1.79,1.592-4.39,2.386-7.799,2.386H29.476z M29.646,5.71c-1.478,0-2.628,0.271-3.452,0.81
			c-0.822,0.541-1.236,1.606-1.236,3.196c0,1.591,0.414,2.657,1.236,3.196c0.824,0.54,1.975,0.81,3.452,0.81h33.154
			c1.479,0,2.6-0.27,3.366-0.81c0.768-0.539,1.15-1.605,1.15-3.196c0-1.59-0.396-2.655-1.192-3.196
			c-0.795-0.539-1.96-0.81-3.494-0.81H29.646z"/>
	</g>
	<g>
		<path fill-rule="evenodd" clip-rule="evenodd" fill="#FF4C3A" d="M25.191,400.396c1.092,0.707,2.171,1.357,3.203,2.081
			c1.992,1.396,3.763,3.028,5.064,5.112c1.364,2.177,2.019,4.579,2.184,7.121c0.225,3.42-0.263,6.715-1.984,9.727
			c-2.788,4.864-6.948,7.706-12.566,8.273c-3.29,0.332-6.541,0.092-9.595-1.272c-4.74-2.121-7.934-5.652-8.965-10.813
			c-0.798-3.986-0.129-7.785,2.441-11.069c1.455-1.861,3.38-3.205,5.342-4.482c0.721-0.472,1.461-0.908,2.239-1.389
			c-0.824-0.426-1.613-0.818-2.389-1.24c-2.006-1.082-3.894-2.33-5.56-3.899c-2.265-2.13-3.551-4.776-4.104-7.797
			c-0.675-3.695-0.797-7.406,0.432-11.002c2.258-6.6,6.783-10.813,13.67-12.219c4.521-0.924,9.014-0.629,13.212,1.423
			c4.864,2.375,8.331,6.098,9.776,11.393c1.35,4.946,0.104,9.374-3.284,13.175c-1.757,1.971-3.958,3.431-6.126,4.908
			C27.204,399.091,26.209,399.727,25.191,400.396z M19.075,369.913c-0.398,0-0.8-0.01-1.199,0.002
			c-0.256,0.01-0.51,0.047-0.766,0.071c-5.211,0.514-9.178,3.072-11.81,7.54c-2.188,3.71-2.371,7.625-0.312,11.481
			c1.271,2.381,3.356,4.017,5.741,5.139c3.578,1.69,7.251,3.181,10.89,4.742c0.134,0.061,0.352,0.045,0.483-0.023
			c2.134-1.105,4.194-2.323,6.103-3.791c4.051-3.119,5.924-7.236,5.594-12.323c-0.295-4.524-2.357-8.078-6.14-10.583
			C25.069,370.453,22.136,369.9,19.075,369.913z M18.967,430.104c0.385,0,0.767,0.011,1.152-0.003
			c0.286-0.01,0.572-0.048,0.858-0.079c3.418-0.365,6.319-1.733,8.563-4.388c2.218-2.621,3.099-5.607,2.294-8.975
			c-0.783-3.278-2.797-5.659-5.714-7.285c-3.095-1.728-6.401-2.963-9.721-4.166c-0.167-0.06-0.418-0.025-0.58,0.058
			c-0.767,0.395-1.535,0.792-2.27,1.238c-2.028,1.232-3.86,2.693-5.177,4.703c-1.467,2.24-1.958,4.74-1.861,7.368
			c0.141,3.895,1.721,7.076,4.889,9.388C13.646,429.602,16.233,430.145,18.967,430.104z"/>
		<path fill-rule="evenodd" clip-rule="evenodd" fill="#FF4C3A" d="M46.852,367.24c3.388,0,6.74,0,10.119,0
			c0,21.968,0,43.917,0,65.903c-3.355,0-6.721,0-10.119,0C46.852,411.197,46.852,389.239,46.852,367.24z"/>
		<path fill-rule="evenodd" clip-rule="evenodd" fill="#FF4C3A" d="M72.518,433.16c-3.386,0-6.74,0-10.119,0
			c0-21.979,0-43.938,0-65.92c3.377,0,6.73,0,10.119,0C72.518,389.202,72.518,411.16,72.518,433.16z"/>
	</g>
</g>
</svg>
